<mxfile host="app.diagrams.net" modified="2020-07-09T05:09:11.931Z" agent="5.0 (Windows NT 10.0; Win64; x64) AppleWebKit/537.36 (KHTML, like Gecko) Chrome/83.0.4103.116 Safari/537.36" etag="ERdloLf0sP8TK9e19r1n" version="13.4.0" type="github">
  <diagram id="HxcKI7vzROYNtN91i_Sj" name="Page-1">
    <mxGraphModel dx="2946" dy="2818" grid="1" gridSize="10" guides="1" tooltips="1" connect="1" arrows="1" fold="1" page="1" pageScale="1" pageWidth="827" pageHeight="1169" math="0" shadow="0">
      <root>
        <mxCell id="0" />
        <mxCell id="1" parent="0" />
        <mxCell id="b2UoFCD5kMTcbCGWd69P-1" value="" style="endArrow=none;dashed=1;html=1;" edge="1" parent="1">
          <mxGeometry width="50" height="50" relative="1" as="geometry">
            <mxPoint x="520" y="1050" as="sourcePoint" />
            <mxPoint x="520" y="145" as="targetPoint" />
          </mxGeometry>
        </mxCell>
        <mxCell id="b2UoFCD5kMTcbCGWd69P-2" value="Presentation" style="text;html=1;strokeColor=none;fillColor=none;align=center;verticalAlign=middle;whiteSpace=wrap;rounded=0;" vertex="1" parent="1">
          <mxGeometry x="120" y="110" width="40" height="20" as="geometry" />
        </mxCell>
        <mxCell id="b2UoFCD5kMTcbCGWd69P-3" value="Domain" style="text;html=1;strokeColor=none;fillColor=none;align=center;verticalAlign=middle;whiteSpace=wrap;rounded=0;" vertex="1" parent="1">
          <mxGeometry x="600" y="120" width="40" height="20" as="geometry" />
        </mxCell>
        <mxCell id="b2UoFCD5kMTcbCGWd69P-4" value="Data" style="text;html=1;align=center;verticalAlign=middle;resizable=0;points=[];autosize=1;" vertex="1" parent="1">
          <mxGeometry x="1280" y="140" width="40" height="20" as="geometry" />
        </mxCell>
        <mxCell id="b2UoFCD5kMTcbCGWd69P-5" style="edgeStyle=orthogonalEdgeStyle;rounded=0;orthogonalLoop=1;jettySize=auto;html=1;" edge="1" parent="1" source="b2UoFCD5kMTcbCGWd69P-6" target="b2UoFCD5kMTcbCGWd69P-9">
          <mxGeometry relative="1" as="geometry" />
        </mxCell>
        <mxCell id="b2UoFCD5kMTcbCGWd69P-6" value="App" style="html=1;" vertex="1" parent="1">
          <mxGeometry x="70" y="170" width="110" height="50" as="geometry" />
        </mxCell>
        <mxCell id="b2UoFCD5kMTcbCGWd69P-7" style="edgeStyle=orthogonalEdgeStyle;rounded=0;orthogonalLoop=1;jettySize=auto;html=1;" edge="1" parent="1" source="b2UoFCD5kMTcbCGWd69P-9" target="b2UoFCD5kMTcbCGWd69P-11">
          <mxGeometry relative="1" as="geometry" />
        </mxCell>
        <mxCell id="b2UoFCD5kMTcbCGWd69P-8" style="edgeStyle=orthogonalEdgeStyle;rounded=0;orthogonalLoop=1;jettySize=auto;html=1;" edge="1" parent="1" source="b2UoFCD5kMTcbCGWd69P-9">
          <mxGeometry relative="1" as="geometry">
            <mxPoint x="160" y="580" as="targetPoint" />
          </mxGeometry>
        </mxCell>
        <mxCell id="b2UoFCD5kMTcbCGWd69P-9" value="DashboardActivity" style="html=1;" vertex="1" parent="1">
          <mxGeometry x="70" y="330" width="110" height="50" as="geometry" />
        </mxCell>
        <mxCell id="b2UoFCD5kMTcbCGWd69P-10" style="edgeStyle=orthogonalEdgeStyle;rounded=0;orthogonalLoop=1;jettySize=auto;html=1;" edge="1" parent="1" source="b2UoFCD5kMTcbCGWd69P-11" target="b2UoFCD5kMTcbCGWd69P-16">
          <mxGeometry relative="1" as="geometry" />
        </mxCell>
        <mxCell id="b2UoFCD5kMTcbCGWd69P-11" value="" style="rounded=0;whiteSpace=wrap;html=1;" vertex="1" parent="1">
          <mxGeometry x="230" y="290" width="240" height="170" as="geometry" />
        </mxCell>
        <mxCell id="b2UoFCD5kMTcbCGWd69P-12" value="ProductDetailFragment" style="html=1;" vertex="1" parent="1">
          <mxGeometry x="272.5" y="380" width="155" height="50" as="geometry" />
        </mxCell>
        <mxCell id="b2UoFCD5kMTcbCGWd69P-13" value="ProductListFragment" style="html=1;" vertex="1" parent="1">
          <mxGeometry x="272.5" y="310" width="155" height="50" as="geometry" />
        </mxCell>
        <mxCell id="b2UoFCD5kMTcbCGWd69P-14" value="Fragments" style="text;html=1;strokeColor=none;fillColor=none;align=center;verticalAlign=middle;whiteSpace=wrap;rounded=0;" vertex="1" parent="1">
          <mxGeometry x="250" y="440" width="40" height="20" as="geometry" />
        </mxCell>
        <mxCell id="b2UoFCD5kMTcbCGWd69P-15" style="edgeStyle=orthogonalEdgeStyle;rounded=0;orthogonalLoop=1;jettySize=auto;html=1;" edge="1" parent="1" source="b2UoFCD5kMTcbCGWd69P-16" target="b2UoFCD5kMTcbCGWd69P-45">
          <mxGeometry relative="1" as="geometry" />
        </mxCell>
        <mxCell id="b2UoFCD5kMTcbCGWd69P-16" value="" style="rounded=0;whiteSpace=wrap;html=1;" vertex="1" parent="1">
          <mxGeometry x="100" y="585" width="240" height="145" as="geometry" />
        </mxCell>
        <mxCell id="b2UoFCD5kMTcbCGWd69P-17" value="ViewModel" style="text;html=1;strokeColor=none;fillColor=none;align=center;verticalAlign=middle;whiteSpace=wrap;rounded=0;" vertex="1" parent="1">
          <mxGeometry x="120" y="700" width="40" height="20" as="geometry" />
        </mxCell>
        <mxCell id="b2UoFCD5kMTcbCGWd69P-18" style="edgeStyle=orthogonalEdgeStyle;rounded=0;orthogonalLoop=1;jettySize=auto;html=1;exitX=0.25;exitY=1;exitDx=0;exitDy=0;entryX=0;entryY=0.75;entryDx=0;entryDy=0;" edge="1" parent="1" source="b2UoFCD5kMTcbCGWd69P-17" target="b2UoFCD5kMTcbCGWd69P-17">
          <mxGeometry relative="1" as="geometry" />
        </mxCell>
        <mxCell id="b2UoFCD5kMTcbCGWd69P-19" value="MasterDetailViewModel" style="html=1;" vertex="1" parent="1">
          <mxGeometry x="142.5" y="632.5" width="155" height="50" as="geometry" />
        </mxCell>
        <mxCell id="b2UoFCD5kMTcbCGWd69P-20" value="" style="group" vertex="1" connectable="0" parent="1">
          <mxGeometry x="620" y="150" width="380" height="320" as="geometry" />
        </mxCell>
        <mxCell id="b2UoFCD5kMTcbCGWd69P-21" value="" style="rounded=0;whiteSpace=wrap;html=1;" vertex="1" parent="b2UoFCD5kMTcbCGWd69P-20">
          <mxGeometry width="380" height="320" as="geometry" />
        </mxCell>
        <mxCell id="b2UoFCD5kMTcbCGWd69P-22" value="ProductDetail" style="swimlane;fontStyle=0;childLayout=stackLayout;horizontal=1;startSize=26;fillColor=none;horizontalStack=0;resizeParent=1;resizeParentMax=0;resizeLast=0;collapsible=1;marginBottom=0;" vertex="1" parent="b2UoFCD5kMTcbCGWd69P-20">
          <mxGeometry x="20" y="20" width="140" height="260" as="geometry" />
        </mxCell>
        <mxCell id="b2UoFCD5kMTcbCGWd69P-23" value="title: String" style="text;strokeColor=none;fillColor=none;align=left;verticalAlign=top;spacingLeft=4;spacingRight=4;overflow=hidden;rotatable=0;points=[[0,0.5],[1,0.5]];portConstraint=eastwest;" vertex="1" parent="b2UoFCD5kMTcbCGWd69P-22">
          <mxGeometry y="26" width="140" height="26" as="geometry" />
        </mxCell>
        <mxCell id="b2UoFCD5kMTcbCGWd69P-24" value="price: Float" style="text;strokeColor=none;fillColor=none;align=left;verticalAlign=top;spacingLeft=4;spacingRight=4;overflow=hidden;rotatable=0;points=[[0,0.5],[1,0.5]];portConstraint=eastwest;" vertex="1" parent="b2UoFCD5kMTcbCGWd69P-22">
          <mxGeometry y="52" width="140" height="26" as="geometry" />
        </mxCell>
        <mxCell id="b2UoFCD5kMTcbCGWd69P-25" value="+ images: String" style="text;strokeColor=none;fillColor=none;align=left;verticalAlign=top;spacingLeft=4;spacingRight=4;overflow=hidden;rotatable=0;points=[[0,0.5],[1,0.5]];portConstraint=eastwest;" vertex="1" parent="b2UoFCD5kMTcbCGWd69P-22">
          <mxGeometry y="78" width="140" height="26" as="geometry" />
        </mxCell>
        <mxCell id="b2UoFCD5kMTcbCGWd69P-26" value="warranty: String?" style="text;strokeColor=none;fillColor=none;align=left;verticalAlign=top;spacingLeft=4;spacingRight=4;overflow=hidden;rotatable=0;points=[[0,0.5],[1,0.5]];portConstraint=eastwest;" vertex="1" parent="b2UoFCD5kMTcbCGWd69P-22">
          <mxGeometry y="104" width="140" height="26" as="geometry" />
        </mxCell>
        <mxCell id="b2UoFCD5kMTcbCGWd69P-27" value="avaliableQuantity: Int" style="text;strokeColor=none;fillColor=none;align=left;verticalAlign=top;spacingLeft=4;spacingRight=4;overflow=hidden;rotatable=0;points=[[0,0.5],[1,0.5]];portConstraint=eastwest;" vertex="1" parent="b2UoFCD5kMTcbCGWd69P-22">
          <mxGeometry y="130" width="140" height="26" as="geometry" />
        </mxCell>
        <mxCell id="b2UoFCD5kMTcbCGWd69P-28" value="soldQuantity: Int" style="text;strokeColor=none;fillColor=none;align=left;verticalAlign=top;spacingLeft=4;spacingRight=4;overflow=hidden;rotatable=0;points=[[0,0.5],[1,0.5]];portConstraint=eastwest;" vertex="1" parent="b2UoFCD5kMTcbCGWd69P-22">
          <mxGeometry y="156" width="140" height="26" as="geometry" />
        </mxCell>
        <mxCell id="b2UoFCD5kMTcbCGWd69P-29" value="tags: List&lt;String&gt;" style="text;strokeColor=none;fillColor=none;align=left;verticalAlign=top;spacingLeft=4;spacingRight=4;overflow=hidden;rotatable=0;points=[[0,0.5],[1,0.5]];portConstraint=eastwest;" vertex="1" parent="b2UoFCD5kMTcbCGWd69P-22">
          <mxGeometry y="182" width="140" height="26" as="geometry" />
        </mxCell>
        <mxCell id="b2UoFCD5kMTcbCGWd69P-30" value="description: String?" style="text;strokeColor=none;fillColor=none;align=left;verticalAlign=top;spacingLeft=4;spacingRight=4;overflow=hidden;rotatable=0;points=[[0,0.5],[1,0.5]];portConstraint=eastwest;" vertex="1" parent="b2UoFCD5kMTcbCGWd69P-22">
          <mxGeometry y="208" width="140" height="26" as="geometry" />
        </mxCell>
        <mxCell id="b2UoFCD5kMTcbCGWd69P-31" value="features: List&lt;Feature&gt;" style="text;strokeColor=none;fillColor=none;align=left;verticalAlign=top;spacingLeft=4;spacingRight=4;overflow=hidden;rotatable=0;points=[[0,0.5],[1,0.5]];portConstraint=eastwest;" vertex="1" parent="b2UoFCD5kMTcbCGWd69P-22">
          <mxGeometry y="234" width="140" height="26" as="geometry" />
        </mxCell>
        <mxCell id="b2UoFCD5kMTcbCGWd69P-32" value="ProductPreview" style="swimlane;fontStyle=0;childLayout=stackLayout;horizontal=1;startSize=26;fillColor=none;horizontalStack=0;resizeParent=1;resizeParentMax=0;resizeLast=0;collapsible=1;marginBottom=0;" vertex="1" parent="b2UoFCD5kMTcbCGWd69P-20">
          <mxGeometry x="210" y="20" width="160" height="260" as="geometry" />
        </mxCell>
        <mxCell id="b2UoFCD5kMTcbCGWd69P-33" value="id: String" style="text;strokeColor=none;fillColor=none;align=left;verticalAlign=top;spacingLeft=4;spacingRight=4;overflow=hidden;rotatable=0;points=[[0,0.5],[1,0.5]];portConstraint=eastwest;" vertex="1" parent="b2UoFCD5kMTcbCGWd69P-32">
          <mxGeometry y="26" width="160" height="26" as="geometry" />
        </mxCell>
        <mxCell id="b2UoFCD5kMTcbCGWd69P-34" value="tittle: String" style="text;strokeColor=none;fillColor=none;align=left;verticalAlign=top;spacingLeft=4;spacingRight=4;overflow=hidden;rotatable=0;points=[[0,0.5],[1,0.5]];portConstraint=eastwest;" vertex="1" parent="b2UoFCD5kMTcbCGWd69P-32">
          <mxGeometry y="52" width="160" height="26" as="geometry" />
        </mxCell>
        <mxCell id="b2UoFCD5kMTcbCGWd69P-35" value="price: Double" style="text;strokeColor=none;fillColor=none;align=left;verticalAlign=top;spacingLeft=4;spacingRight=4;overflow=hidden;rotatable=0;points=[[0,0.5],[1,0.5]];portConstraint=eastwest;" vertex="1" parent="b2UoFCD5kMTcbCGWd69P-32">
          <mxGeometry y="78" width="160" height="26" as="geometry" />
        </mxCell>
        <mxCell id="b2UoFCD5kMTcbCGWd69P-36" value="thumbailUrl: String" style="text;strokeColor=none;fillColor=none;align=left;verticalAlign=top;spacingLeft=4;spacingRight=4;overflow=hidden;rotatable=0;points=[[0,0.5],[1,0.5]];portConstraint=eastwest;" vertex="1" parent="b2UoFCD5kMTcbCGWd69P-32">
          <mxGeometry y="104" width="160" height="26" as="geometry" />
        </mxCell>
        <mxCell id="b2UoFCD5kMTcbCGWd69P-37" value="currency: String" style="text;strokeColor=none;fillColor=none;align=left;verticalAlign=top;spacingLeft=4;spacingRight=4;overflow=hidden;rotatable=0;points=[[0,0.5],[1,0.5]];portConstraint=eastwest;" vertex="1" parent="b2UoFCD5kMTcbCGWd69P-32">
          <mxGeometry y="130" width="160" height="26" as="geometry" />
        </mxCell>
        <mxCell id="b2UoFCD5kMTcbCGWd69P-38" value="hasFreeShipping: Boolean" style="text;strokeColor=none;fillColor=none;align=left;verticalAlign=top;spacingLeft=4;spacingRight=4;overflow=hidden;rotatable=0;points=[[0,0.5],[1,0.5]];portConstraint=eastwest;" vertex="1" parent="b2UoFCD5kMTcbCGWd69P-32">
          <mxGeometry y="156" width="160" height="26" as="geometry" />
        </mxCell>
        <mxCell id="b2UoFCD5kMTcbCGWd69P-39" value="tags: List&lt;String&gt;" style="text;strokeColor=none;fillColor=none;align=left;verticalAlign=top;spacingLeft=4;spacingRight=4;overflow=hidden;rotatable=0;points=[[0,0.5],[1,0.5]];portConstraint=eastwest;" vertex="1" parent="b2UoFCD5kMTcbCGWd69P-32">
          <mxGeometry y="182" width="160" height="26" as="geometry" />
        </mxCell>
        <mxCell id="b2UoFCD5kMTcbCGWd69P-40" value="description: String?" style="text;strokeColor=none;fillColor=none;align=left;verticalAlign=top;spacingLeft=4;spacingRight=4;overflow=hidden;rotatable=0;points=[[0,0.5],[1,0.5]];portConstraint=eastwest;" vertex="1" parent="b2UoFCD5kMTcbCGWd69P-32">
          <mxGeometry y="208" width="160" height="26" as="geometry" />
        </mxCell>
        <mxCell id="b2UoFCD5kMTcbCGWd69P-41" value="features: List&lt;Feature&gt;" style="text;strokeColor=none;fillColor=none;align=left;verticalAlign=top;spacingLeft=4;spacingRight=4;overflow=hidden;rotatable=0;points=[[0,0.5],[1,0.5]];portConstraint=eastwest;" vertex="1" parent="b2UoFCD5kMTcbCGWd69P-32">
          <mxGeometry y="234" width="160" height="26" as="geometry" />
        </mxCell>
        <mxCell id="b2UoFCD5kMTcbCGWd69P-42" value="Models" style="text;html=1;strokeColor=none;fillColor=none;align=center;verticalAlign=middle;whiteSpace=wrap;rounded=0;" vertex="1" parent="b2UoFCD5kMTcbCGWd69P-20">
          <mxGeometry x="30" y="300" width="40" height="20" as="geometry" />
        </mxCell>
        <mxCell id="b2UoFCD5kMTcbCGWd69P-43" value="" style="group" vertex="1" connectable="0" parent="1">
          <mxGeometry x="550" y="584.5" width="240" height="145" as="geometry" />
        </mxCell>
        <mxCell id="b2UoFCD5kMTcbCGWd69P-44" value="" style="group" vertex="1" connectable="0" parent="b2UoFCD5kMTcbCGWd69P-43">
          <mxGeometry width="240" height="145" as="geometry" />
        </mxCell>
        <mxCell id="b2UoFCD5kMTcbCGWd69P-45" value="" style="rounded=0;whiteSpace=wrap;html=1;" vertex="1" parent="b2UoFCD5kMTcbCGWd69P-44">
          <mxGeometry width="240" height="145" as="geometry" />
        </mxCell>
        <mxCell id="b2UoFCD5kMTcbCGWd69P-46" value="UseCases" style="text;html=1;strokeColor=none;fillColor=none;align=center;verticalAlign=middle;whiteSpace=wrap;rounded=0;" vertex="1" parent="b2UoFCD5kMTcbCGWd69P-44">
          <mxGeometry x="30" y="125" width="40" height="20" as="geometry" />
        </mxCell>
        <mxCell id="b2UoFCD5kMTcbCGWd69P-47" value="GetProductsUseCase" style="html=1;" vertex="1" parent="b2UoFCD5kMTcbCGWd69P-44">
          <mxGeometry x="40" y="10" width="155" height="50" as="geometry" />
        </mxCell>
        <mxCell id="b2UoFCD5kMTcbCGWd69P-48" value="GetProductDetailUseCase" style="html=1;" vertex="1" parent="b2UoFCD5kMTcbCGWd69P-44">
          <mxGeometry x="40" y="70" width="155" height="50" as="geometry" />
        </mxCell>
        <mxCell id="b2UoFCD5kMTcbCGWd69P-49" style="edgeStyle=orthogonalEdgeStyle;rounded=0;orthogonalLoop=1;jettySize=auto;html=1;entryX=0.5;entryY=1;entryDx=0;entryDy=0;" edge="1" parent="1" source="b2UoFCD5kMTcbCGWd69P-45" target="b2UoFCD5kMTcbCGWd69P-21">
          <mxGeometry relative="1" as="geometry" />
        </mxCell>
        <mxCell id="b2UoFCD5kMTcbCGWd69P-50" style="edgeStyle=orthogonalEdgeStyle;rounded=0;orthogonalLoop=1;jettySize=auto;html=1;entryX=0.661;entryY=1.003;entryDx=0;entryDy=0;entryPerimeter=0;" edge="1" parent="1" source="b2UoFCD5kMTcbCGWd69P-52" target="b2UoFCD5kMTcbCGWd69P-21">
          <mxGeometry relative="1" as="geometry" />
        </mxCell>
        <mxCell id="b2UoFCD5kMTcbCGWd69P-51" style="edgeStyle=orthogonalEdgeStyle;rounded=0;orthogonalLoop=1;jettySize=auto;html=1;entryX=0.75;entryY=0;entryDx=0;entryDy=0;" edge="1" parent="1" source="b2UoFCD5kMTcbCGWd69P-52" target="b2UoFCD5kMTcbCGWd69P-55">
          <mxGeometry relative="1" as="geometry" />
        </mxCell>
        <mxCell id="b2UoFCD5kMTcbCGWd69P-52" value="&lt;p style=&quot;margin: 0px ; margin-top: 4px ; text-align: center&quot;&gt;&lt;i&gt;&amp;lt;&amp;lt;Interface&amp;gt;&amp;gt;&lt;/i&gt;&lt;br&gt;&lt;b&gt;ProductsRepository&lt;/b&gt;&lt;/p&gt;&lt;hr size=&quot;1&quot;&gt;&lt;p style=&quot;margin: 0px ; margin-left: 4px&quot;&gt;+ getProductPreview(query: String): Result&amp;lt;List&amp;lt;ProductPreview&amp;gt;&amp;gt;&lt;br&gt;+ getProductDetaila(productId: String): Result&amp;lt;ProductDetail&amp;gt;&lt;/p&gt;" style="verticalAlign=top;align=left;overflow=fill;fontSize=12;fontFamily=Helvetica;html=1;" vertex="1" parent="1">
          <mxGeometry x="860" y="585" width="379" height="115" as="geometry" />
        </mxCell>
        <mxCell id="b2UoFCD5kMTcbCGWd69P-53" value="" style="group" vertex="1" connectable="0" parent="1">
          <mxGeometry x="610" y="800" width="380" height="320" as="geometry" />
        </mxCell>
        <mxCell id="b2UoFCD5kMTcbCGWd69P-54" value="" style="group" vertex="1" connectable="0" parent="b2UoFCD5kMTcbCGWd69P-53">
          <mxGeometry x="20" y="70" width="240" height="150" as="geometry" />
        </mxCell>
        <mxCell id="b2UoFCD5kMTcbCGWd69P-55" value="" style="rounded=0;whiteSpace=wrap;html=1;" vertex="1" parent="b2UoFCD5kMTcbCGWd69P-54">
          <mxGeometry width="240" height="150" as="geometry" />
        </mxCell>
        <mxCell id="b2UoFCD5kMTcbCGWd69P-56" value="Result" style="swimlane;fontStyle=0;childLayout=stackLayout;horizontal=1;startSize=26;fillColor=none;horizontalStack=0;resizeParent=1;resizeParentMax=0;resizeLast=0;collapsible=1;marginBottom=0;" vertex="1" parent="b2UoFCD5kMTcbCGWd69P-54">
          <mxGeometry x="10" y="10.004999999999995" width="140" height="86.9375" as="geometry" />
        </mxCell>
        <mxCell id="b2UoFCD5kMTcbCGWd69P-57" value="success" style="text;strokeColor=none;fillColor=none;align=left;verticalAlign=top;spacingLeft=4;spacingRight=4;overflow=hidden;rotatable=0;points=[[0,0.5],[1,0.5]];portConstraint=eastwest;" vertex="1" parent="b2UoFCD5kMTcbCGWd69P-56">
          <mxGeometry y="26" width="140" height="20.3125" as="geometry" />
        </mxCell>
        <mxCell id="b2UoFCD5kMTcbCGWd69P-58" value="Error" style="text;strokeColor=none;fillColor=none;align=left;verticalAlign=top;spacingLeft=4;spacingRight=4;overflow=hidden;rotatable=0;points=[[0,0.5],[1,0.5]];portConstraint=eastwest;" vertex="1" parent="b2UoFCD5kMTcbCGWd69P-56">
          <mxGeometry y="46.3125" width="140" height="20.3125" as="geometry" />
        </mxCell>
        <mxCell id="b2UoFCD5kMTcbCGWd69P-59" value="Loading" style="text;strokeColor=none;fillColor=none;align=left;verticalAlign=top;spacingLeft=4;spacingRight=4;overflow=hidden;rotatable=0;points=[[0,0.5],[1,0.5]];portConstraint=eastwest;" vertex="1" parent="b2UoFCD5kMTcbCGWd69P-56">
          <mxGeometry y="66.625" width="140" height="20.3125" as="geometry" />
        </mxCell>
        <mxCell id="b2UoFCD5kMTcbCGWd69P-60" value="util" style="text;html=1;strokeColor=none;fillColor=none;align=center;verticalAlign=middle;whiteSpace=wrap;rounded=0;" vertex="1" parent="b2UoFCD5kMTcbCGWd69P-54">
          <mxGeometry x="10" y="130.005" width="40" height="15.625" as="geometry" />
        </mxCell>
        <mxCell id="b2UoFCD5kMTcbCGWd69P-61" style="edgeStyle=orthogonalEdgeStyle;rounded=0;orthogonalLoop=1;jettySize=auto;html=1;entryX=-0.005;entryY=0.617;entryDx=0;entryDy=0;entryPerimeter=0;" edge="1" parent="1" source="b2UoFCD5kMTcbCGWd69P-45" target="b2UoFCD5kMTcbCGWd69P-52">
          <mxGeometry relative="1" as="geometry" />
        </mxCell>
        <mxCell id="b2UoFCD5kMTcbCGWd69P-62" style="edgeStyle=orthogonalEdgeStyle;rounded=0;orthogonalLoop=1;jettySize=auto;html=1;entryX=0.5;entryY=0;entryDx=0;entryDy=0;" edge="1" parent="1" source="b2UoFCD5kMTcbCGWd69P-45" target="b2UoFCD5kMTcbCGWd69P-55">
          <mxGeometry relative="1" as="geometry" />
        </mxCell>
        <mxCell id="b2UoFCD5kMTcbCGWd69P-63" value="" style="endArrow=none;dashed=1;html=1;" edge="1" parent="1">
          <mxGeometry width="50" height="50" relative="1" as="geometry">
            <mxPoint x="1280" y="1037" as="sourcePoint" />
            <mxPoint x="1280" y="132" as="targetPoint" />
          </mxGeometry>
        </mxCell>
        <mxCell id="b2UoFCD5kMTcbCGWd69P-64" style="edgeStyle=orthogonalEdgeStyle;rounded=0;orthogonalLoop=1;jettySize=auto;html=1;entryX=0;entryY=0.5;entryDx=0;entryDy=0;" edge="1" parent="1" source="b2UoFCD5kMTcbCGWd69P-65" target="b2UoFCD5kMTcbCGWd69P-67">
          <mxGeometry relative="1" as="geometry" />
        </mxCell>
        <mxCell id="b2UoFCD5kMTcbCGWd69P-65" value="ProductRepositoryImpl" style="html=1;" vertex="1" parent="1">
          <mxGeometry x="1330" y="617.5" width="230" height="50" as="geometry" />
        </mxCell>
        <mxCell id="b2UoFCD5kMTcbCGWd69P-66" value="" style="endArrow=block;dashed=1;endFill=0;endSize=12;html=1;entryX=0;entryY=0.5;entryDx=0;entryDy=0;" edge="1" parent="1" source="b2UoFCD5kMTcbCGWd69P-52" target="b2UoFCD5kMTcbCGWd69P-65">
          <mxGeometry width="160" relative="1" as="geometry">
            <mxPoint x="1239" y="642.5" as="sourcePoint" />
            <mxPoint x="1399" y="642.5" as="targetPoint" />
          </mxGeometry>
        </mxCell>
        <mxCell id="b2UoFCD5kMTcbCGWd69P-67" value="&lt;p style=&quot;margin: 0px ; margin-top: 4px ; text-align: center&quot;&gt;&lt;i&gt;&amp;lt;&amp;lt;Interface&amp;gt;&amp;gt;&lt;/i&gt;&lt;br&gt;&lt;b&gt;RemoteDataSource&lt;/b&gt;&lt;/p&gt;&lt;hr size=&quot;1&quot;&gt;&lt;p style=&quot;margin: 0px ; margin-left: 4px&quot;&gt;+ getProducts(query: String): List&amp;lt;ProductPreview&amp;gt;&lt;br&gt;+ getProductDetail(productId: String):&amp;nbsp; ProductDetail&lt;/p&gt;" style="verticalAlign=top;align=left;overflow=fill;fontSize=12;fontFamily=Helvetica;html=1;" vertex="1" parent="1">
          <mxGeometry x="1620" y="585" width="379" height="115" as="geometry" />
        </mxCell>
        <mxCell id="b2UoFCD5kMTcbCGWd69P-68" style="edgeStyle=orthogonalEdgeStyle;rounded=0;orthogonalLoop=1;jettySize=auto;html=1;" edge="1" parent="1" source="b2UoFCD5kMTcbCGWd69P-70">
          <mxGeometry relative="1" as="geometry">
            <mxPoint x="1560" y="310" as="targetPoint" />
          </mxGeometry>
        </mxCell>
        <mxCell id="b2UoFCD5kMTcbCGWd69P-69" style="edgeStyle=orthogonalEdgeStyle;rounded=0;orthogonalLoop=1;jettySize=auto;html=1;entryX=0;entryY=0.583;entryDx=0;entryDy=0;entryPerimeter=0;" edge="1" parent="1" source="b2UoFCD5kMTcbCGWd69P-70" target="b2UoFCD5kMTcbCGWd69P-80">
          <mxGeometry relative="1" as="geometry">
            <Array as="points">
              <mxPoint x="2040" y="310" />
              <mxPoint x="2040" y="652" />
            </Array>
          </mxGeometry>
        </mxCell>
        <mxCell id="b2UoFCD5kMTcbCGWd69P-70" value="RemoteDataSoruceImpl" style="html=1;" vertex="1" parent="1">
          <mxGeometry x="1710" y="285" width="230" height="50" as="geometry" />
        </mxCell>
        <mxCell id="b2UoFCD5kMTcbCGWd69P-71" value="" style="endArrow=block;dashed=1;endFill=0;endSize=12;html=1;entryX=0.5;entryY=1;entryDx=0;entryDy=0;" edge="1" parent="1" target="b2UoFCD5kMTcbCGWd69P-70">
          <mxGeometry width="160" relative="1" as="geometry">
            <mxPoint x="1825" y="580" as="sourcePoint" />
            <mxPoint x="1901" y="390" as="targetPoint" />
          </mxGeometry>
        </mxCell>
        <mxCell id="b2UoFCD5kMTcbCGWd69P-72" style="edgeStyle=orthogonalEdgeStyle;rounded=0;orthogonalLoop=1;jettySize=auto;html=1;entryX=1.003;entryY=0.531;entryDx=0;entryDy=0;entryPerimeter=0;" edge="1" parent="1" source="b2UoFCD5kMTcbCGWd69P-73" target="b2UoFCD5kMTcbCGWd69P-21">
          <mxGeometry relative="1" as="geometry" />
        </mxCell>
        <mxCell id="b2UoFCD5kMTcbCGWd69P-73" value="" style="rounded=0;whiteSpace=wrap;html=1;" vertex="1" parent="1">
          <mxGeometry x="1310" y="240" width="240" height="170" as="geometry" />
        </mxCell>
        <mxCell id="b2UoFCD5kMTcbCGWd69P-74" value="Mappers" style="text;html=1;strokeColor=none;fillColor=none;align=center;verticalAlign=middle;whiteSpace=wrap;rounded=0;" vertex="1" parent="1">
          <mxGeometry x="1320" y="380" width="40" height="20" as="geometry" />
        </mxCell>
        <mxCell id="b2UoFCD5kMTcbCGWd69P-75" value="ProductDetailMapper" style="html=1;" vertex="1" parent="1">
          <mxGeometry x="1320" y="260" width="155" height="50" as="geometry" />
        </mxCell>
        <mxCell id="b2UoFCD5kMTcbCGWd69P-76" value="ProductPreviewMapper" style="html=1;" vertex="1" parent="1">
          <mxGeometry x="1320" y="330" width="155" height="50" as="geometry" />
        </mxCell>
        <mxCell id="b2UoFCD5kMTcbCGWd69P-77" value="" style="endArrow=none;dashed=1;html=1;" edge="1" parent="1">
          <mxGeometry width="50" height="50" relative="1" as="geometry">
            <mxPoint x="2040" y="1025" as="sourcePoint" />
            <mxPoint x="2040" y="120" as="targetPoint" />
          </mxGeometry>
        </mxCell>
        <mxCell id="b2UoFCD5kMTcbCGWd69P-78" value="RemoteData" style="text;html=1;align=center;verticalAlign=middle;resizable=0;points=[];autosize=1;" vertex="1" parent="1">
          <mxGeometry x="2060" y="140" width="80" height="20" as="geometry" />
        </mxCell>
        <mxCell id="b2UoFCD5kMTcbCGWd69P-79" style="edgeStyle=orthogonalEdgeStyle;rounded=0;orthogonalLoop=1;jettySize=auto;html=1;entryX=0.277;entryY=1;entryDx=0;entryDy=0;entryPerimeter=0;" edge="1" parent="1" source="b2UoFCD5kMTcbCGWd69P-80" target="b2UoFCD5kMTcbCGWd69P-83">
          <mxGeometry relative="1" as="geometry" />
        </mxCell>
        <mxCell id="b2UoFCD5kMTcbCGWd69P-80" value="&lt;p style=&quot;margin: 0px ; margin-top: 4px ; text-align: center&quot;&gt;&lt;i&gt;&amp;lt;&amp;lt;Interface&amp;gt;&amp;gt;&lt;/i&gt;&lt;br&gt;&lt;b&gt;ProductsApi&lt;/b&gt;&lt;/p&gt;&lt;hr size=&quot;1&quot;&gt;&lt;p style=&quot;margin: 0px ; margin-left: 4px&quot;&gt;+ getProductsByQuery(query: String): ProductQueryResponse&lt;br&gt;+ getSpecificProductResponse(productId: String):&amp;nbsp; SpecificProductReponse&lt;/p&gt;&lt;p style=&quot;margin: 0px ; margin-left: 4px&quot;&gt;+ getFeaturesAndDescriptions(catalogProductId: String): FeaturesAndDescriptionsResponse&lt;/p&gt;" style="verticalAlign=top;align=left;overflow=fill;fontSize=12;fontFamily=Helvetica;html=1;" vertex="1" parent="1">
          <mxGeometry x="2100" y="585" width="540" height="115" as="geometry" />
        </mxCell>
        <mxCell id="b2UoFCD5kMTcbCGWd69P-81" value="ProductsApi implementation provides by Retrofit" style="html=1;" vertex="1" parent="1">
          <mxGeometry x="2250" y="830" width="300" height="50" as="geometry" />
        </mxCell>
        <mxCell id="b2UoFCD5kMTcbCGWd69P-82" value="" style="endArrow=block;dashed=1;endFill=0;endSize=12;html=1;entryX=0.5;entryY=0;entryDx=0;entryDy=0;exitX=0.557;exitY=1;exitDx=0;exitDy=0;exitPerimeter=0;" edge="1" parent="1" source="b2UoFCD5kMTcbCGWd69P-80" target="b2UoFCD5kMTcbCGWd69P-81">
          <mxGeometry width="160" relative="1" as="geometry">
            <mxPoint x="2160" y="995" as="sourcePoint" />
            <mxPoint x="2160" y="750" as="targetPoint" />
          </mxGeometry>
        </mxCell>
        <mxCell id="b2UoFCD5kMTcbCGWd69P-83" value="" style="rounded=0;whiteSpace=wrap;html=1;" vertex="1" parent="1">
          <mxGeometry x="2068" y="170" width="1092" height="360" as="geometry" />
        </mxCell>
        <mxCell id="b2UoFCD5kMTcbCGWd69P-84" value="Models" style="text;html=1;strokeColor=none;fillColor=none;align=center;verticalAlign=middle;whiteSpace=wrap;rounded=0;" vertex="1" parent="1">
          <mxGeometry x="2080" y="500" width="40" height="20" as="geometry" />
        </mxCell>
        <mxCell id="b2UoFCD5kMTcbCGWd69P-85" value="ProductQueryResponse" style="swimlane;fontStyle=0;childLayout=stackLayout;horizontal=1;startSize=26;fillColor=none;horizontalStack=0;resizeParent=1;resizeParentMax=0;resizeLast=0;collapsible=1;marginBottom=0;" vertex="1" parent="1">
          <mxGeometry x="2090" y="182" width="230" height="78" as="geometry" />
        </mxCell>
        <mxCell id="b2UoFCD5kMTcbCGWd69P-86" value="query: String" style="text;strokeColor=none;fillColor=none;align=left;verticalAlign=top;spacingLeft=4;spacingRight=4;overflow=hidden;rotatable=0;points=[[0,0.5],[1,0.5]];portConstraint=eastwest;" vertex="1" parent="b2UoFCD5kMTcbCGWd69P-85">
          <mxGeometry y="26" width="230" height="26" as="geometry" />
        </mxCell>
        <mxCell id="b2UoFCD5kMTcbCGWd69P-87" value="result: List&lt;ProductPreviewResponse&gt;" style="text;strokeColor=none;fillColor=none;align=left;verticalAlign=top;spacingLeft=4;spacingRight=4;overflow=hidden;rotatable=0;points=[[0,0.5],[1,0.5]];portConstraint=eastwest;" vertex="1" parent="b2UoFCD5kMTcbCGWd69P-85">
          <mxGeometry y="52" width="230" height="26" as="geometry" />
        </mxCell>
        <mxCell id="b2UoFCD5kMTcbCGWd69P-88" value="ProductPreviewResponse" style="swimlane;fontStyle=0;childLayout=stackLayout;horizontal=1;startSize=26;fillColor=none;horizontalStack=0;resizeParent=1;resizeParentMax=0;resizeLast=0;collapsible=1;marginBottom=0;" vertex="1" parent="1">
          <mxGeometry x="2341" y="180" width="209" height="234" as="geometry" />
        </mxCell>
        <mxCell id="b2UoFCD5kMTcbCGWd69P-89" value="id: String" style="text;strokeColor=none;fillColor=none;align=left;verticalAlign=top;spacingLeft=4;spacingRight=4;overflow=hidden;rotatable=0;points=[[0,0.5],[1,0.5]];portConstraint=eastwest;" vertex="1" parent="b2UoFCD5kMTcbCGWd69P-88">
          <mxGeometry y="26" width="209" height="26" as="geometry" />
        </mxCell>
        <mxCell id="b2UoFCD5kMTcbCGWd69P-90" value="catalogProductId: String&#xa;" style="text;strokeColor=none;fillColor=none;align=left;verticalAlign=top;spacingLeft=4;spacingRight=4;overflow=hidden;rotatable=0;points=[[0,0.5],[1,0.5]];portConstraint=eastwest;" vertex="1" parent="b2UoFCD5kMTcbCGWd69P-88">
          <mxGeometry y="52" width="209" height="26" as="geometry" />
        </mxCell>
        <mxCell id="b2UoFCD5kMTcbCGWd69P-91" value="title: String" style="text;strokeColor=none;fillColor=none;align=left;verticalAlign=top;spacingLeft=4;spacingRight=4;overflow=hidden;rotatable=0;points=[[0,0.5],[1,0.5]];portConstraint=eastwest;" vertex="1" parent="b2UoFCD5kMTcbCGWd69P-88">
          <mxGeometry y="78" width="209" height="26" as="geometry" />
        </mxCell>
        <mxCell id="b2UoFCD5kMTcbCGWd69P-92" value="price: Double" style="text;strokeColor=none;fillColor=none;align=left;verticalAlign=top;spacingLeft=4;spacingRight=4;overflow=hidden;rotatable=0;points=[[0,0.5],[1,0.5]];portConstraint=eastwest;" vertex="1" parent="b2UoFCD5kMTcbCGWd69P-88">
          <mxGeometry y="104" width="209" height="26" as="geometry" />
        </mxCell>
        <mxCell id="b2UoFCD5kMTcbCGWd69P-93" value="currencyId: String" style="text;strokeColor=none;fillColor=none;align=left;verticalAlign=top;spacingLeft=4;spacingRight=4;overflow=hidden;rotatable=0;points=[[0,0.5],[1,0.5]];portConstraint=eastwest;" vertex="1" parent="b2UoFCD5kMTcbCGWd69P-88">
          <mxGeometry y="130" width="209" height="26" as="geometry" />
        </mxCell>
        <mxCell id="b2UoFCD5kMTcbCGWd69P-94" value="condition: String" style="text;strokeColor=none;fillColor=none;align=left;verticalAlign=top;spacingLeft=4;spacingRight=4;overflow=hidden;rotatable=0;points=[[0,0.5],[1,0.5]];portConstraint=eastwest;" vertex="1" parent="b2UoFCD5kMTcbCGWd69P-88">
          <mxGeometry y="156" width="209" height="26" as="geometry" />
        </mxCell>
        <mxCell id="b2UoFCD5kMTcbCGWd69P-95" value="thumbail: String" style="text;strokeColor=none;fillColor=none;align=left;verticalAlign=top;spacingLeft=4;spacingRight=4;overflow=hidden;rotatable=0;points=[[0,0.5],[1,0.5]];portConstraint=eastwest;" vertex="1" parent="b2UoFCD5kMTcbCGWd69P-88">
          <mxGeometry y="182" width="209" height="26" as="geometry" />
        </mxCell>
        <mxCell id="b2UoFCD5kMTcbCGWd69P-96" value="shhipping: Shipping" style="text;strokeColor=none;fillColor=none;align=left;verticalAlign=top;spacingLeft=4;spacingRight=4;overflow=hidden;rotatable=0;points=[[0,0.5],[1,0.5]];portConstraint=eastwest;" vertex="1" parent="b2UoFCD5kMTcbCGWd69P-88">
          <mxGeometry y="208" width="209" height="26" as="geometry" />
        </mxCell>
        <mxCell id="b2UoFCD5kMTcbCGWd69P-97" value="Shipping" style="swimlane;fontStyle=0;childLayout=stackLayout;horizontal=1;startSize=26;fillColor=none;horizontalStack=0;resizeParent=1;resizeParentMax=0;resizeLast=0;collapsible=1;marginBottom=0;" vertex="1" parent="1">
          <mxGeometry x="2090" y="290" width="230" height="52" as="geometry" />
        </mxCell>
        <mxCell id="b2UoFCD5kMTcbCGWd69P-98" value="freeShipping: Boolean" style="text;strokeColor=none;fillColor=none;align=left;verticalAlign=top;spacingLeft=4;spacingRight=4;overflow=hidden;rotatable=0;points=[[0,0.5],[1,0.5]];portConstraint=eastwest;" vertex="1" parent="b2UoFCD5kMTcbCGWd69P-97">
          <mxGeometry y="26" width="230" height="26" as="geometry" />
        </mxCell>
        <mxCell id="b2UoFCD5kMTcbCGWd69P-99" value="SpecificProductResponse" style="swimlane;fontStyle=0;childLayout=stackLayout;horizontal=1;startSize=26;fillColor=none;horizontalStack=0;resizeParent=1;resizeParentMax=0;resizeLast=0;collapsible=1;marginBottom=0;" vertex="1" parent="1">
          <mxGeometry x="2590" y="180" width="209" height="260" as="geometry" />
        </mxCell>
        <mxCell id="b2UoFCD5kMTcbCGWd69P-100" value="tittle: String" style="text;strokeColor=none;fillColor=none;align=left;verticalAlign=top;spacingLeft=4;spacingRight=4;overflow=hidden;rotatable=0;points=[[0,0.5],[1,0.5]];portConstraint=eastwest;" vertex="1" parent="b2UoFCD5kMTcbCGWd69P-99">
          <mxGeometry y="26" width="209" height="26" as="geometry" />
        </mxCell>
        <mxCell id="b2UoFCD5kMTcbCGWd69P-101" value="catalogProductId: String?" style="text;strokeColor=none;fillColor=none;align=left;verticalAlign=top;spacingLeft=4;spacingRight=4;overflow=hidden;rotatable=0;points=[[0,0.5],[1,0.5]];portConstraint=eastwest;" vertex="1" parent="b2UoFCD5kMTcbCGWd69P-99">
          <mxGeometry y="52" width="209" height="26" as="geometry" />
        </mxCell>
        <mxCell id="b2UoFCD5kMTcbCGWd69P-102" value="price: Double&#xa;" style="text;strokeColor=none;fillColor=none;align=left;verticalAlign=top;spacingLeft=4;spacingRight=4;overflow=hidden;rotatable=0;points=[[0,0.5],[1,0.5]];portConstraint=eastwest;" vertex="1" parent="b2UoFCD5kMTcbCGWd69P-99">
          <mxGeometry y="78" width="209" height="26" as="geometry" />
        </mxCell>
        <mxCell id="b2UoFCD5kMTcbCGWd69P-103" value="currency: Id" style="text;strokeColor=none;fillColor=none;align=left;verticalAlign=top;spacingLeft=4;spacingRight=4;overflow=hidden;rotatable=0;points=[[0,0.5],[1,0.5]];portConstraint=eastwest;" vertex="1" parent="b2UoFCD5kMTcbCGWd69P-99">
          <mxGeometry y="104" width="209" height="26" as="geometry" />
        </mxCell>
        <mxCell id="b2UoFCD5kMTcbCGWd69P-104" value="avaliableQuantity: Int&#xa;&#xa;" style="text;strokeColor=none;fillColor=none;align=left;verticalAlign=top;spacingLeft=4;spacingRight=4;overflow=hidden;rotatable=0;points=[[0,0.5],[1,0.5]];portConstraint=eastwest;" vertex="1" parent="b2UoFCD5kMTcbCGWd69P-99">
          <mxGeometry y="130" width="209" height="26" as="geometry" />
        </mxCell>
        <mxCell id="b2UoFCD5kMTcbCGWd69P-105" value="soldQuantity: Int" style="text;strokeColor=none;fillColor=none;align=left;verticalAlign=top;spacingLeft=4;spacingRight=4;overflow=hidden;rotatable=0;points=[[0,0.5],[1,0.5]];portConstraint=eastwest;" vertex="1" parent="b2UoFCD5kMTcbCGWd69P-99">
          <mxGeometry y="156" width="209" height="26" as="geometry" />
        </mxCell>
        <mxCell id="b2UoFCD5kMTcbCGWd69P-106" value="pictures: List&lt;Picture&gt;" style="text;strokeColor=none;fillColor=none;align=left;verticalAlign=top;spacingLeft=4;spacingRight=4;overflow=hidden;rotatable=0;points=[[0,0.5],[1,0.5]];portConstraint=eastwest;" vertex="1" parent="b2UoFCD5kMTcbCGWd69P-99">
          <mxGeometry y="182" width="209" height="26" as="geometry" />
        </mxCell>
        <mxCell id="b2UoFCD5kMTcbCGWd69P-107" value="warranty: String?" style="text;strokeColor=none;fillColor=none;align=left;verticalAlign=top;spacingLeft=4;spacingRight=4;overflow=hidden;rotatable=0;points=[[0,0.5],[1,0.5]];portConstraint=eastwest;" vertex="1" parent="b2UoFCD5kMTcbCGWd69P-99">
          <mxGeometry y="208" width="209" height="26" as="geometry" />
        </mxCell>
        <mxCell id="b2UoFCD5kMTcbCGWd69P-108" value="tags: List&lt;String&gt;" style="text;strokeColor=none;fillColor=none;align=left;verticalAlign=top;spacingLeft=4;spacingRight=4;overflow=hidden;rotatable=0;points=[[0,0.5],[1,0.5]];portConstraint=eastwest;" vertex="1" parent="b2UoFCD5kMTcbCGWd69P-99">
          <mxGeometry y="234" width="209" height="26" as="geometry" />
        </mxCell>
        <mxCell id="b2UoFCD5kMTcbCGWd69P-109" value="Picture" style="swimlane;fontStyle=0;childLayout=stackLayout;horizontal=1;startSize=26;fillColor=none;horizontalStack=0;resizeParent=1;resizeParentMax=0;resizeLast=0;collapsible=1;marginBottom=0;" vertex="1" parent="1">
          <mxGeometry x="2090" y="362" width="230" height="78" as="geometry" />
        </mxCell>
        <mxCell id="b2UoFCD5kMTcbCGWd69P-110" value="id: String" style="text;strokeColor=none;fillColor=none;align=left;verticalAlign=top;spacingLeft=4;spacingRight=4;overflow=hidden;rotatable=0;points=[[0,0.5],[1,0.5]];portConstraint=eastwest;" vertex="1" parent="b2UoFCD5kMTcbCGWd69P-109">
          <mxGeometry y="26" width="230" height="26" as="geometry" />
        </mxCell>
        <mxCell id="b2UoFCD5kMTcbCGWd69P-111" value="url: String" style="text;strokeColor=none;fillColor=none;align=left;verticalAlign=top;spacingLeft=4;spacingRight=4;overflow=hidden;rotatable=0;points=[[0,0.5],[1,0.5]];portConstraint=eastwest;" vertex="1" parent="b2UoFCD5kMTcbCGWd69P-109">
          <mxGeometry y="52" width="230" height="26" as="geometry" />
        </mxCell>
        <mxCell id="b2UoFCD5kMTcbCGWd69P-112" value="FeaturesAndDescriptionResponse" style="swimlane;fontStyle=0;childLayout=stackLayout;horizontal=1;startSize=26;fillColor=none;horizontalStack=0;resizeParent=1;resizeParentMax=0;resizeLast=0;collapsible=1;marginBottom=0;" vertex="1" parent="1">
          <mxGeometry x="2840" y="182" width="230" height="104" as="geometry" />
        </mxCell>
        <mxCell id="b2UoFCD5kMTcbCGWd69P-113" value="id: String" style="text;strokeColor=none;fillColor=none;align=left;verticalAlign=top;spacingLeft=4;spacingRight=4;overflow=hidden;rotatable=0;points=[[0,0.5],[1,0.5]];portConstraint=eastwest;" vertex="1" parent="b2UoFCD5kMTcbCGWd69P-112">
          <mxGeometry y="26" width="230" height="26" as="geometry" />
        </mxCell>
        <mxCell id="b2UoFCD5kMTcbCGWd69P-114" value="shortDescription: ShortDescription" style="text;strokeColor=none;fillColor=none;align=left;verticalAlign=top;spacingLeft=4;spacingRight=4;overflow=hidden;rotatable=0;points=[[0,0.5],[1,0.5]];portConstraint=eastwest;" vertex="1" parent="b2UoFCD5kMTcbCGWd69P-112">
          <mxGeometry y="52" width="230" height="26" as="geometry" />
        </mxCell>
        <mxCell id="b2UoFCD5kMTcbCGWd69P-115" value="features: List&lt;Features&gt;" style="text;strokeColor=none;fillColor=none;align=left;verticalAlign=top;spacingLeft=4;spacingRight=4;overflow=hidden;rotatable=0;points=[[0,0.5],[1,0.5]];portConstraint=eastwest;" vertex="1" parent="b2UoFCD5kMTcbCGWd69P-112">
          <mxGeometry y="78" width="230" height="26" as="geometry" />
        </mxCell>
        <mxCell id="b2UoFCD5kMTcbCGWd69P-116" value="Features" style="swimlane;fontStyle=0;childLayout=stackLayout;horizontal=1;startSize=26;fillColor=none;horizontalStack=0;resizeParent=1;resizeParentMax=0;resizeLast=0;collapsible=1;marginBottom=0;" vertex="1" parent="1">
          <mxGeometry x="2840" y="300" width="230" height="78" as="geometry" />
        </mxCell>
        <mxCell id="b2UoFCD5kMTcbCGWd69P-117" value="type: String?" style="text;strokeColor=none;fillColor=none;align=left;verticalAlign=top;spacingLeft=4;spacingRight=4;overflow=hidden;rotatable=0;points=[[0,0.5],[1,0.5]];portConstraint=eastwest;" vertex="1" parent="b2UoFCD5kMTcbCGWd69P-116">
          <mxGeometry y="26" width="230" height="26" as="geometry" />
        </mxCell>
        <mxCell id="b2UoFCD5kMTcbCGWd69P-118" value="text: String?" style="text;strokeColor=none;fillColor=none;align=left;verticalAlign=top;spacingLeft=4;spacingRight=4;overflow=hidden;rotatable=0;points=[[0,0.5],[1,0.5]];portConstraint=eastwest;" vertex="1" parent="b2UoFCD5kMTcbCGWd69P-116">
          <mxGeometry y="52" width="230" height="26" as="geometry" />
        </mxCell>
        <mxCell id="b2UoFCD5kMTcbCGWd69P-119" value="ShortDescription" style="swimlane;fontStyle=0;childLayout=stackLayout;horizontal=1;startSize=26;fillColor=none;horizontalStack=0;resizeParent=1;resizeParentMax=0;resizeLast=0;collapsible=1;marginBottom=0;" vertex="1" parent="1">
          <mxGeometry x="2840" y="392" width="230" height="78" as="geometry" />
        </mxCell>
        <mxCell id="b2UoFCD5kMTcbCGWd69P-120" value="type: String?" style="text;strokeColor=none;fillColor=none;align=left;verticalAlign=top;spacingLeft=4;spacingRight=4;overflow=hidden;rotatable=0;points=[[0,0.5],[1,0.5]];portConstraint=eastwest;" vertex="1" parent="b2UoFCD5kMTcbCGWd69P-119">
          <mxGeometry y="26" width="230" height="26" as="geometry" />
        </mxCell>
        <mxCell id="b2UoFCD5kMTcbCGWd69P-121" value="content: String?" style="text;strokeColor=none;fillColor=none;align=left;verticalAlign=top;spacingLeft=4;spacingRight=4;overflow=hidden;rotatable=0;points=[[0,0.5],[1,0.5]];portConstraint=eastwest;" vertex="1" parent="b2UoFCD5kMTcbCGWd69P-119">
          <mxGeometry y="52" width="230" height="26" as="geometry" />
        </mxCell>
        <mxCell id="b2UoFCD5kMTcbCGWd69P-122" value="" style="endArrow=classic;html=1;" edge="1" parent="1">
          <mxGeometry width="50" height="50" relative="1" as="geometry">
            <mxPoint x="2390" y="40" as="sourcePoint" />
            <mxPoint x="630" y="40" as="targetPoint" />
          </mxGeometry>
        </mxCell>
        <mxCell id="b2UoFCD5kMTcbCGWd69P-123" value="&lt;font style=&quot;font-size: 18px&quot;&gt;Model tranformation&lt;/font&gt;" style="text;html=1;strokeColor=none;fillColor=none;align=center;verticalAlign=middle;whiteSpace=wrap;rounded=0;" vertex="1" parent="1">
          <mxGeometry x="1570" y="-30" width="190" height="20" as="geometry" />
        </mxCell>
      </root>
    </mxGraphModel>
  </diagram>
</mxfile>
